<svg width="33" height="32" viewBox="0 0 33 32" fill="none" xmlns="http://www.w3.org/2000/svg">
<g clip-path="url(#clip0)">
<path d="M16.0422 32C24.9021 32 32.0844 24.8366 32.0844 16C32.0844 7.16344 24.9021 0 16.0422 0C7.18234 0 0 7.16344 0 16C0 24.8366 7.18234 32 16.0422 32Z" fill="#FFC200"/>
<path d="M16.0421 0C15.6198 0 15.2029 0.02125 14.7888 0.05325C23.0618 0.69175 29.5777 7.5845 29.5777 16C29.5777 24.4155 23.0618 31.3083 14.7888 31.9468C15.2029 31.9788 15.6198 32 16.0421 32C24.9019 32 32.0843 24.8368 32.0843 16C32.0843 7.16325 24.9019 0 16.0421 0Z" fill="#F2B800"/>
<path d="M16.0421 28.8697C12.1814 28.8697 8.52054 27.2417 5.99815 24.4042C5.75125 24.1267 5.62718 23.769 5.64924 23.398C5.6718 23.0275 5.83748 22.687 6.11596 22.4405C6.37164 22.2147 6.7 22.0902 7.0414 22.0902C7.44045 22.0902 7.8207 22.2612 8.0854 22.559C10.0789 24.8017 12.9788 26.0875 16.0418 26.0875C19.0969 26.0875 21.9907 24.8085 23.9812 22.5777C24.2464 22.2812 24.6259 22.1117 25.0237 22.1117C25.3654 22.1117 25.695 22.2367 25.9504 22.4632C26.2289 22.7102 26.3941 23.0507 26.4154 23.4215C26.4374 23.7925 26.3126 24.15 26.0655 24.4275C23.5463 27.2505 19.8925 28.8697 16.0421 28.8697Z" fill="#F2B800"/>
<path d="M16.0422 28.1738C12.3811 28.1738 8.91046 26.6315 6.52017 23.942C6.2645 23.655 6.29107 23.2153 6.57907 22.96C6.86758 22.7048 7.30824 22.7315 7.56366 23.019C9.68951 25.4108 12.7801 26.7825 16.0422 26.7825C19.2963 26.7825 22.3802 25.4183 24.5027 23.0393C24.7587 22.7528 25.1993 22.7268 25.4876 22.982C25.7753 23.2373 25.8009 23.677 25.545 23.9643C23.1577 26.6398 19.6943 28.1738 16.0422 28.1738Z" fill="#F5F5F5"/>
<path d="M12.7837 14.25C12.3686 14.25 12.0317 13.914 12.0317 13.5C12.0317 12.2593 11.0198 11.25 9.77576 11.25C8.53174 11.25 7.51983 12.2593 7.51983 13.5C7.51983 13.914 7.18294 14.25 6.76785 14.25C6.35276 14.25 6.01587 13.914 6.01587 13.5C6.01587 11.4323 7.70256 9.75 9.77576 9.75C11.849 9.75 13.5357 11.4323 13.5357 13.5C13.5357 13.914 13.1988 14.25 12.7837 14.25Z" fill="#263740"/>
<path d="M25.3166 14.25C24.9015 14.25 24.5647 13.914 24.5647 13.5C24.5647 12.2593 23.5527 11.25 22.3087 11.25C21.0647 11.25 20.0528 12.2593 20.0528 13.5C20.0528 13.914 19.7159 14.25 19.3008 14.25C18.8857 14.25 18.5488 13.914 18.5488 13.5C18.5488 11.4323 20.2355 9.75 22.3087 9.75C24.3819 9.75 26.0686 11.4323 26.0686 13.5C26.0686 13.914 25.7317 14.25 25.3166 14.25Z" fill="#263740"/>
<path d="M16.042 7.5C20.604 7.5 25.0841 7.4075 29.4573 7.2295C26.5903 2.8765 21.654 0 16.042 0C10.43 0 5.49375 2.8765 2.62695 7.2295C6.99996 7.4075 11.48 7.5 16.042 7.5Z" fill="#E16B5A"/>
<path d="M27.9504 7.28325C28.4522 7.265 28.958 7.24975 29.4574 7.2295C26.5903 2.8765 21.6541 0 16.0421 0C15.8082 0 15.5761 0.00675 15.3447 0.0165C20.5933 0.24475 25.1861 3.07325 27.9504 7.28325Z" fill="#CC6152"/>
<path d="M7.32617 7.38225C9.09307 7.42875 10.8713 7.46475 12.6675 7.4825C13.4651 2.919 14.68 0 16.0424 0C12.4845 0 9.32518 2.89825 7.32617 7.38225Z" fill="#F5F5F5"/>
<path d="M19.4174 7.483C21.2136 7.46525 22.9918 7.42875 24.7587 7.38275C22.7594 2.89825 19.5998 0 16.0422 0C17.4048 0 18.6195 2.919 19.4174 7.483Z" fill="#F5F5F5"/>
</g>
<defs>
<clipPath id="clip0">
<rect width="32.0844" height="32" fill="white"/>
</clipPath>
</defs>
</svg>
