<svg width="33" height="32" viewBox="0 0 33 32" fill="none" xmlns="http://www.w3.org/2000/svg">
<g clip-path="url(#clip0)">
<path d="M15.5409 31C24.1239 31 31.0818 24.0604 31.0818 15.5C31.0818 6.93959 24.1239 0 15.5409 0C6.9579 0 0 6.93959 0 15.5C0 24.0604 6.9579 31 15.5409 31Z" fill="#FFC200"/>
<path d="M15.5409 0C15.1183 0 14.7012 0.0215 14.2876 0.05475C22.2831 0.69175 28.5752 7.361 28.5752 15.5C28.5752 23.639 22.2831 30.3083 14.2876 30.9452C14.7012 30.9785 15.1183 31 15.5409 31C24.1235 31 31.0818 24.0605 31.0818 15.5C31.0818 6.9395 24.1235 0 15.5409 0Z" fill="#F2B800"/>
<path d="M25.3024 25.25C24.8222 25.25 24.3913 24.9838 24.1787 24.5548C22.8267 21.8303 19.3555 20 15.541 20C11.7265 20 8.25532 21.8303 6.90327 24.5545C6.68995 24.9838 6.25982 25.25 5.77956 25.25C5.58805 25.25 5.3963 25.205 5.2241 25.12C4.92431 24.9718 4.69997 24.7165 4.59268 24.3997C4.4854 24.0832 4.50846 23.7442 4.6571 23.4452C6.44932 19.8337 10.7211 17.5 15.541 17.5C20.3609 17.5 24.6327 19.8337 26.4251 23.4455C26.5735 23.7442 26.5966 24.0837 26.4893 24.3997C26.382 24.7165 26.1579 24.9718 25.8576 25.12C25.6859 25.205 25.4937 25.25 25.3024 25.25Z" fill="#F2B800"/>
<path d="M15.541 18C20.1714 18 24.2672 20.2245 25.9757 23.6672C26.1597 24.0385 26.0075 24.4885 25.6355 24.6725C25.2636 24.8557 24.8126 24.7042 24.6279 24.3332C23.1934 21.4422 19.5417 19.5 15.541 19.5C11.5402 19.5 7.88858 21.4422 6.45406 24.3327C6.27007 24.7037 5.81839 24.8557 5.44641 24.6717C5.07443 24.4885 4.92152 24.0385 5.10626 23.6667C6.81501 20.2245 10.9105 18 15.541 18Z" fill="#F5F5F5"/>
<path d="M12.2822 8.25C11.8671 8.25 11.5302 8.586 11.5302 9C11.5302 10.2407 10.5183 11.25 9.2743 11.25C8.03028 11.25 7.01836 10.2407 7.01836 9C7.01836 8.586 6.68148 8.25 6.26638 8.25C5.85129 8.25 5.5144 8.586 5.5144 9C5.5144 11.0677 7.20109 12.75 9.2743 12.75C11.3475 12.75 13.0342 11.0677 13.0342 9C13.0342 8.586 12.6973 8.25 12.2822 8.25Z" fill="#263740"/>
<path d="M24.8152 8.25C24.4001 8.25 24.0632 8.586 24.0632 9C24.0632 10.2407 23.0513 11.25 21.8073 11.25C20.5632 11.25 19.5513 10.2407 19.5513 9C19.5513 8.586 19.2144 8.25 18.7993 8.25C18.3842 8.25 18.0474 8.586 18.0474 9C18.0474 11.0677 19.7341 12.75 21.8073 12.75C23.8805 12.75 25.5672 11.0677 25.5672 9C25.5672 8.586 25.2303 8.25 24.8152 8.25Z" fill="#263740"/>
<path d="M16.5436 15.25C15.4379 15.25 14.5383 16.126 14.5383 17.2288V23.9788C14.5383 25.0815 15.4379 25.9788 16.5436 25.9788H18.7928C19.181 25.9788 19.5585 25.8637 19.8791 25.6567C19.9541 25.8292 20.028 26.035 20.119 26.29C20.3213 26.8608 20.572 27.5658 21.0555 28.481V30.8697L21.3335 31.1595C21.8456 31.694 22.5529 32 23.2736 32C24.1318 32 24.9086 31.5798 25.4052 30.8477C25.8804 30.1465 26.2885 28.883 25.7115 26.7525H29.5779C30.7633 26.7525 32.0845 25.693 32.0845 24.173C32.0845 23.5655 31.9925 23.0692 31.8108 22.692C31.9787 22.0132 31.9391 21.0845 31.3548 20.3407C31.3596 19.348 31.0673 18.6065 30.466 18.0855C30.3885 17.5198 30.1336 16.9588 29.7466 16.517C29.3024 16.009 28.7387 15.7295 28.1612 15.7295H20.5176C20.3902 15.7295 20.2669 15.7392 20.1491 15.7587C19.7816 15.4185 19.3096 15.25 18.7995 15.25H16.5436Z" fill="#455C91"/>
<path d="M19.7954 24.0041C21.0876 24.9091 20.7657 25.8841 22.0581 28.2288C22.0581 29.3481 22.0581 29.8668 22.0581 30.4683C23.3508 31.8156 26.3193 30.7288 24.3141 25.7526H29.5779C30.2096 25.7526 31.0819 25.1408 31.0819 24.1731C31.0819 23.4996 30.9355 22.9403 30.6598 22.8773C30.9355 22.4648 31.1142 21.3578 30.3342 20.7221C30.3998 19.9151 30.3189 19.0596 29.4759 18.6146C29.5869 17.8068 28.9077 16.7288 28.1609 16.7288C27.4137 16.7288 21.0695 16.7288 20.5168 16.7288C19.9641 16.7288 19.7947 16.9856 19.7947 17.4136V24.0038H19.7954V24.0041Z" fill="#F5F5F5"/>
<path d="M23.0674 25.7525H24.314C26.0543 30.0712 24.0485 31.459 22.6433 30.8705C23.6407 30.43 24.3122 28.8407 23.0674 25.7525Z" fill="#E6E6E6"/>
<path d="M31.0818 24.1724C31.0818 25.1404 30.2095 25.7519 29.5778 25.7519H28.3313C28.9629 25.7519 29.8352 25.1402 29.8352 24.1724C29.8352 23.4989 29.6889 22.9397 29.4136 22.8767C29.6889 22.4642 29.8681 21.3572 29.0878 20.7214C29.1537 19.9144 29.0722 19.0589 28.2295 18.6139C28.3403 17.8059 27.6613 16.7282 26.9143 16.7282C27.5292 16.7282 27.9906 16.7282 28.1608 16.7282C28.9076 16.7282 29.5868 17.8059 29.4758 18.6139C30.3188 19.0584 30.3997 19.9144 30.3341 20.7214C31.1141 21.3572 30.9349 22.4642 30.6597 22.8767C30.9354 22.9402 31.0818 23.4989 31.0818 24.1724Z" fill="#E6E6E6"/>
<path d="M19.7955 17.2288C19.7955 16.6788 19.344 16.2288 18.7928 16.2288H16.5437C15.9922 16.2288 15.541 16.6788 15.541 17.2288V23.9788C15.541 24.5288 15.9922 24.9788 16.5437 24.9788H18.7928C19.344 24.9788 19.7955 24.5288 19.7955 23.9788V17.2288Z" fill="#6E7FB3"/>
</g>
<defs>
<clipPath id="clip0">
<rect width="32.0844" height="32" fill="white"/>
</clipPath>
</defs>
</svg>
