<svg width="33" height="33" viewBox="0 0 33 33" fill="none" xmlns="http://www.w3.org/2000/svg">
<g clip-path="url(#clip0)">
<path d="M16.0422 33C24.9021 33 32.0844 25.6127 32.0844 16.5C32.0844 7.3873 24.9021 0 16.0422 0C7.18234 0 0 7.3873 0 16.5C0 25.6127 7.18234 33 16.0422 33Z" fill="#FFC200"/>
<path d="M16.0424 0C15.6198 0 15.2027 0.0219141 14.7891 0.0549141C23.0628 0.713625 29.578 7.82126 29.578 16.5C29.578 25.1787 23.0628 32.2864 14.7888 32.9451C15.2027 32.9781 15.6198 33 16.0421 33C24.9027 33 32.0846 25.6132 32.0846 16.5C32.0846 7.38684 24.9027 0 16.0424 0Z" fill="#F2B800"/>
<path d="M8.4368 28.6347C3.00801 25.0078 -1.08777 14.7017 6.48391 9.31266C6.59445 9.23376 6.7293 9.20747 6.85639 9.23789C6.98347 9.26831 7.09251 9.3521 7.16094 9.47198C11.729 16.5425 17.5525 20.4337 25.6905 21.8514C25.9554 21.8813 26.1416 22.1154 26.1118 22.3866C25.7599 25.5804 23.6531 28.3054 20.8808 29.6466C16.4827 31.7743 12.3388 30.6742 8.4368 28.6347Z" fill="#F2B800"/>
<path d="M25.6076 22.3533C24.4596 31.4572 13.2551 31.2061 8.70786 28.201C3.9724 25.0709 -0.42217 15.0521 6.7492 9.75377C11.3967 16.9506 17.3258 20.9109 25.6076 22.3533Z" fill="#F5F5F5"/>
<path d="M16.3127 9.91771C15.9643 9.68568 15.8655 9.20589 16.0916 8.8483C16.7691 7.77529 16.4716 6.3354 15.4283 5.63853C14.3851 4.94167 12.9854 5.24743 12.3079 6.32071C12.082 6.67881 11.6156 6.78064 11.2679 6.54835C10.92 6.31581 10.8207 5.83628 11.0468 5.47869C12.176 3.68998 14.5092 3.18003 16.2475 4.34148C17.9866 5.50292 18.4824 7.90265 17.3534 9.69109C17.1268 10.0487 16.6608 10.1503 16.3127 9.91771Z" fill="#263740"/>
<path d="M26.824 16.9384C26.4756 16.7059 26.3766 16.2264 26.6027 15.8685C27.2802 14.7955 26.9827 13.3559 25.9394 12.659C24.8964 11.9621 23.4965 12.2679 22.819 13.3412C22.5931 13.6998 22.1267 13.8011 21.7792 13.5688C21.4306 13.3363 21.3318 12.857 21.5579 12.4989C22.6871 10.7105 25.0203 10.2008 26.7588 11.362C28.4979 12.5237 28.9937 14.9231 27.8645 16.7116C27.6379 17.0691 27.1714 17.1712 26.824 16.9384Z" fill="#263740"/>
</g>
<defs>
<clipPath id="clip0">
<rect width="32.0844" height="33" fill="white"/>
</clipPath>
</defs>
</svg>
