<svg width="33" height="32" viewBox="0 0 33 32" fill="none" xmlns="http://www.w3.org/2000/svg">
<g clip-path="url(#clip0)">
<path d="M16.0422 32C24.9021 32 32.0844 24.8366 32.0844 16C32.0844 7.16344 24.9021 0 16.0422 0C7.18234 0 0 7.16344 0 16C0 24.8366 7.18234 32 16.0422 32Z" fill="#FFC200"/>
<path d="M16.0424 0C15.62 0 15.2032 0.02125 14.7891 0.05325C23.0626 0.69175 29.578 7.58425 29.578 16C29.578 24.416 23.0626 31.308 14.7891 31.9468C15.2032 31.9788 15.62 32 16.0424 32C24.9027 32 32.0846 24.837 32.0846 16C32.0846 7.163 24.9027 0 16.0424 0Z" fill="#F2B800"/>
<path d="M16.0328 18.25C19.8932 18.25 23.5543 19.8777 26.0767 22.7157C26.3236 22.993 26.4474 23.351 26.4256 23.722C26.4031 24.0928 26.2374 24.433 25.9592 24.6793C25.7032 24.9053 25.3751 25.0298 25.0337 25.0298C24.6344 25.0298 24.2547 24.8585 23.9897 24.561C21.996 22.3185 19.0961 21.0322 16.033 21.0322C12.978 21.0322 10.0841 22.3115 8.09364 24.542C7.82869 24.8387 7.44894 25.0085 7.05115 25.0085C6.70925 25.0085 6.37988 24.8835 6.12421 24.6565C5.84597 24.4095 5.68079 24.069 5.65923 23.6982C5.63717 23.3275 5.762 22.9697 6.0094 22.6922C8.52828 19.8692 12.1821 18.25 16.0328 18.25Z" fill="#F2B800"/>
<path d="M16.0325 18.9455C19.6936 18.9455 23.1643 20.4878 25.5546 23.1771C25.8105 23.4643 25.7834 23.9041 25.4956 24.1591C25.2074 24.4143 24.7667 24.3876 24.5111 24.1003C22.3855 21.7088 19.2946 20.337 16.0325 20.337C12.7782 20.337 9.69456 21.7013 7.57197 24.0803C7.31605 24.3668 6.87539 24.3928 6.58738 24.1376C6.29963 23.8823 6.27381 23.4423 6.52998 23.1553C8.91701 20.4798 12.3804 18.9455 16.0325 18.9455Z" fill="#F5F5F5"/>
<path d="M12.7837 9.25C12.3683 9.25 12.0317 9.58575 12.0317 10C12.0317 11.2405 11.0195 12.25 9.77576 12.25C8.53199 12.25 7.51983 11.2405 7.51983 10C7.51983 9.58575 7.18319 9.25 6.76785 9.25C6.35251 9.25 6.01587 9.58575 6.01587 10C6.01587 12.0677 7.70256 13.75 9.77576 13.75C11.849 13.75 13.5357 12.0677 13.5357 10C13.5357 9.58575 13.199 9.25 12.7837 9.25Z" fill="#263740"/>
<path d="M25.3166 9.25C24.9013 9.25 24.5647 9.58575 24.5647 10C24.5647 11.2405 23.5525 12.25 22.3087 12.25C21.0649 12.25 20.0528 11.2405 20.0528 10C20.0528 9.58575 19.7162 9.25 19.3008 9.25C18.8855 9.25 18.5488 9.58575 18.5488 10C18.5488 12.0677 20.2355 13.75 22.3087 13.75C24.3819 13.75 26.0686 12.0677 26.0686 10C26.0686 9.58575 25.732 9.25 25.3166 9.25Z" fill="#263740"/>
<path d="M26.3191 16C26.3191 16.4143 25.9825 16.75 25.5672 16.75C25.1518 16.75 24.8152 16.4143 24.8152 16C24.8152 15.5857 25.1518 14.5 25.5672 14.5C25.9825 14.5 26.3191 15.5857 26.3191 16Z" fill="#91D2F2"/>
<path d="M7.01836 17.5C7.01836 17.9143 6.68173 18.25 6.26638 18.25C5.85104 18.25 5.5144 17.9143 5.5144 17.5C5.5144 17.0857 5.85104 16 6.26638 16C6.68173 16 7.01836 17.0857 7.01836 17.5Z" fill="#91D2F2"/>
<path d="M27.3218 19.5C27.3218 19.9143 26.9852 20.25 26.5698 20.25C26.1545 20.25 25.8179 19.9143 25.8179 19.5C25.8179 19.0857 26.1545 18 26.5698 18C26.9852 18 27.3218 19.0857 27.3218 19.5Z" fill="#91D2F2"/>
</g>
<defs>
<clipPath id="clip0">
<rect width="32.0844" height="32" fill="white"/>
</clipPath>
</defs>
</svg>
