<svg width="33" height="32" viewBox="0 0 33 32" fill="none" xmlns="http://www.w3.org/2000/svg">
<g clip-path="url(#clip0)">
<path d="M16.0421 32.0007C24.9019 32.0007 32.0842 24.8373 32.0842 16.0009C32.0842 7.16438 24.9019 0.000991821 16.0421 0.000991821C7.18229 0.000991821 0 7.16438 0 16.0009C0 24.8373 7.18229 32.0007 16.0421 32.0007Z" fill="#FFC200"/>
<path d="M16.0421 0.00012207C15.6195 0.00012207 15.2024 0.0213719 14.7888 0.0533716C23.0625 0.691867 29.5776 7.58431 29.5776 16C29.5776 24.4157 23.0625 31.3081 14.7888 31.9466C15.2024 31.9786 15.6195 31.9999 16.0421 31.9999C24.9024 31.9999 32.0842 24.8369 32.0842 16C32.0842 7.16307 24.9024 0.00012207 16.0421 0.00012207Z" fill="#F2B800"/>
<path d="M12.7836 8.50003C12.3685 8.50003 12.0317 8.83603 12.0317 9.25002C12.0317 10.4908 11.0197 11.5 9.77573 11.5C8.53172 11.5 7.51982 10.4908 7.51982 9.25002C7.51982 8.83603 7.18293 8.50003 6.76784 8.50003C6.35275 8.50003 6.01587 8.83603 6.01587 9.25002C6.01587 11.3178 7.70254 13 9.77573 13C11.8489 13 13.5356 11.3178 13.5356 9.25002C13.5356 8.83603 13.1987 8.50003 12.7836 8.50003Z" fill="#263740"/>
<path d="M25.3166 8.50003C24.9015 8.50003 24.5646 8.83603 24.5646 9.25002C24.5646 10.4908 23.5527 11.5 22.3087 11.5C21.0647 11.5 20.0528 10.4908 20.0528 9.25002C20.0528 8.83603 19.7159 8.50003 19.3008 8.50003C18.8857 8.50003 18.5488 8.83603 18.5488 9.25002C18.5488 11.3178 20.2355 13 22.3087 13C24.3819 13 26.0686 11.3178 26.0686 9.25002C26.0686 8.83603 25.7317 8.50003 25.3166 8.50003Z" fill="#263740"/>
<path d="M7.26916 23C6.57809 23 6.01587 22.4392 6.01587 21.75C6.01587 21.0607 6.57809 20.5 7.26916 20.5H24.8152C25.5063 20.5 26.0685 21.0607 26.0685 21.75C26.0685 22.4392 25.5063 23 24.8152 23H7.26916Z" fill="#F2B800"/>
<path d="M24.8151 22.5H7.26906C6.85372 22.5 6.51709 22.164 6.51709 21.75C6.51709 21.336 6.85372 21 7.26906 21H24.8151C25.2304 21 25.5671 21.336 25.5671 21.75C25.5671 22.164 25.2304 22.5 24.8151 22.5Z" fill="#F5F5F5"/>
<path d="M28.3246 31.9999H22.3088C22.011 31.9999 21.7413 31.8249 21.6212 31.5534C21.5012 31.2819 21.5525 30.9649 21.7521 30.7459L25.6222 26.4999H23.5621C23.1467 26.4999 22.8101 26.1642 22.8101 25.7499C22.8101 25.3357 23.1467 25 23.5621 25H27.3219C27.6197 25 27.8894 25.175 28.0095 25.4464C28.1295 25.7179 28.0782 26.0349 27.8786 26.2539L24.0085 30.4999H28.3246C28.7399 30.4999 29.0765 30.8357 29.0765 31.2499C29.0765 31.6641 28.7399 31.9999 28.3246 31.9999Z" fill="#263740"/>
<path d="M31.5832 28.9999H29.3273C29.1245 28.9999 28.9418 28.8782 28.864 28.6914C28.7861 28.5044 28.8292 28.2899 28.9728 28.1464L30.373 26.7499H30.0792C29.8025 26.7499 29.5779 26.5259 29.5779 26.2499C29.5779 25.9739 29.8025 25.7499 30.0792 25.7499H31.5832C31.786 25.7499 31.9687 25.8717 32.0464 26.0584C32.1244 26.2454 32.0813 26.4599 31.9376 26.6034L30.5375 27.9999H31.5832C31.8599 27.9999 32.0845 28.2239 32.0845 28.4999C32.0845 28.7759 31.8599 28.9999 31.5832 28.9999Z" fill="#263740"/>
</g>
<defs>
<clipPath id="clip0">
<rect width="32.0844" height="32" fill="white"/>
</clipPath>
</defs>
</svg>
